<?xml version='1.0' encoding='iso-8859-1'?>
<!DOCTYPE svg PUBLIC '-//W3C//DTD SVG 1.1//EN' 'http://www.w3.org/Graphics/SVG/1.1/DTD/svg11.dtd'>
<svg version="1.1" xmlns="http://www.w3.org/2000/svg" viewBox="0 0 512 512" xmlns:xlink="http://www.w3.org/1999/xlink" enable-background="new 0 0 512 512">
  <g>
    <path d="m480,0h-448c-17.672,0-32,14.328-32,32v448c0,17.672 14.328,32 32,32h448c17.672,0 32-14.328 32-32v-448c0-17.672-14.328-32-32-32zm-304,64h48v48h-48v-48zm-64,384h-48v-384h48v384zm112,0h-48v-48h48v48zm112,0h-48v-48h48v48zm0-128c0,8.836-7.163,16-16,16h-128c-8.837,0-16-7.164-16-16v-64c0-8.837 7.163-16 16-16v-16c0-35.289 28.711-64 64-64s64,28.711 64,64v16c8.837,0 16,7.163 16,16v64zm0-208h-48v-48h48v48zm112,336h-48v-384h48v384z"/>
    <path d="m256,192c-17.648,0-32,14.352-32,32v16h64v-16c0-17.648-14.352-32-32-32z"/>
    <circle cx="256" cy="288" r="16"/>
  </g>
</svg>
